<?xml version="1.0" encoding="utf-8"?>
<!-- Generator: Adobe Illustrator 19.1.0, SVG Export Plug-In . SVG Version: 6.00 Build 0)  -->
<!DOCTYPE svg PUBLIC "-//W3C//DTD SVG 1.1//EN" "http://www.w3.org/Graphics/SVG/1.1/DTD/svg11.dtd">
<svg version="1.1" id="Layer_1" xmlns="http://www.w3.org/2000/svg" xmlns:xlink="http://www.w3.org/1999/xlink" x="0px" y="0px"
	 viewBox="-158.6 127.1 108 108" style="enable-background:new -158.6 127.1 108 108;" xml:space="preserve">
<style type="text/css">
	.st0{fill:#F26522;}
</style>
<path class="st0" d="M-98.5,214.5c10.4,0.1,20.9-3.7,28.9-11.7c14.5-14.5,15.5-37.6,2.9-53.3l0.9-1.9l5-10.3l-10.3,5l-1.9,0.9
	c-15.7-12.6-38.7-11.6-53.3,2.9c-7.9,7.9-11.8,18.4-11.7,28.9l-2.1,1l-11.1,5.4l12.2,2l2,0.3c1.7,7,5.2,13.6,10.6,19
	c5.4,5.4,12,9,19,10.6l0.3,2l1.9,12.2l5.4-11.1L-98.5,214.5z M-75.3,197.2c-5.4,5.4-12.2,8.4-19.2,9.2l23.8-48.6
	C-63.1,170-64.7,186.5-75.3,197.2z M-105.8,182.4l-21.9-3.5l51.2-25.9L-105.8,182.4z M-120.6,151.9c10.7-10.7,27.1-12.2,39.5-4.6
	l-48.6,23.8C-129,164.1-126,157.3-120.6,151.9z M-120.6,197.2c-3.5-3.5-6-7.6-7.5-11.9l16.8,2.7l2.7,16.8
	C-113,203.1-117.1,200.6-120.6,197.2z"/>
</svg>
