<?xml version="1.0" encoding="utf-8"?>
<!-- Generator: Adobe Illustrator 19.1.0, SVG Export Plug-In . SVG Version: 6.00 Build 0)  -->
<!DOCTYPE svg PUBLIC "-//W3C//DTD SVG 1.1//EN" "http://www.w3.org/Graphics/SVG/1.1/DTD/svg11.dtd">
<svg version="1.1" id="Layer_1" xmlns="http://www.w3.org/2000/svg" xmlns:xlink="http://www.w3.org/1999/xlink" x="0px" y="0px"
	 viewBox="-176.6 109.1 144 144" style="enable-background:new -176.6 109.1 144 144;" xml:space="preserve">
<style type="text/css">
	.st0{fill:#FFFFFF;}
	.st1{fill:#F26522;}
</style>
<g>
	<g>
		<path class="st0" d="M-105.5,227.7c-1.3-7.9-8.1-17-15.2-20.3c0,0,0,0-5.1-5.1s-5.1-5.1-5.1-5.1c-3.3-7.1-12.4-13.9-20.3-15.2
			s-8.4-5.2-1.1-8.7s15.2-14.3,17.6-23.9c0,0,1-3.9,8.9-11.8c8.6-8.6,20.1-13.4,32.3-13.4c9.1,0,9.3,0.1,9.3,0.1
			c8.9,4.2,21.7,5.1,28.3,1.8s9.4-0.5,6.2,6.2c-3.2,6.6-4,19.9-1.7,29.6c0,0,5.9,24.8-9.7,40.5c-7.9,7.9-11.8,8.9-11.8,8.9
			c-9.6,2.4-20.4,10.3-23.9,17.6S-104.3,235.6-105.5,227.7z"/>
	</g>
	<path class="st1" d="M-94,209.9c10.4,0.1,20.9-3.7,28.9-11.7c14.5-14.5,15.5-37.6,2.9-53.3l0.9-1.9l5-10.3l-10.3,5l-1.9,0.9
		c-15.7-12.6-38.7-11.6-53.3,2.9c-7.9,7.9-11.8,18.4-11.7,28.9l-2.1,1l-11.1,5.4l12.2,2l2,0.3c1.7,7,5.2,13.6,10.6,19
		c5.4,5.4,12,9,19,10.6l0.3,2l1.9,12.2L-95,212L-94,209.9z M-70.8,192.6C-76.1,198-83,201-90,201.8l23.8-48.6
		C-58.6,165.5-60.1,181.9-70.8,192.6z M-101.2,177.9l-21.9-3.5l51.2-25.9L-101.2,177.9z M-116,147.3c10.7-10.7,27.1-12.2,39.5-4.6
		l-48.6,23.8C-124.4,159.5-121.4,152.7-116,147.3z M-116,192.6c-3.5-3.5-6-7.6-7.5-11.9l16.8,2.7l2.7,16.8
		C-108.5,198.6-112.5,196.1-116,192.6z"/>
	<path class="st1" d="M-94,209.9c10.4,0.1,20.9-3.7,28.9-11.7c14.5-14.5,15.5-37.6,2.9-53.3l0.9-1.9l5-10.3l-10.3,5l-1.9,0.9
		c-15.7-12.6-38.7-11.6-53.3,2.9c-7.9,7.9-11.8,18.4-11.7,28.9l-2.1,1l-11.1,5.4l12.2,2l2,0.3c1.7,7,5.2,13.6,10.6,19
		c5.4,5.4,12,9,19,10.6l0.3,2l1.9,12.2L-95,212L-94,209.9z M-70.8,192.6C-76.1,198-83,201-90,201.8l23.8-48.6
		C-58.6,165.5-60.1,181.9-70.8,192.6z M-101.2,177.9l-21.9-3.5l51.2-25.9L-101.2,177.9z M-116,147.3c10.7-10.7,27.1-12.2,39.5-4.6
		l-48.6,23.8C-124.4,159.5-121.4,152.7-116,147.3z M-116,192.6c-3.5-3.5-6-7.6-7.5-11.9l16.8,2.7l2.7,16.8
		C-108.5,198.6-112.5,196.1-116,192.6z"/>
</g>
</svg>
