<?xml version="1.0" encoding="utf-8"?>
<!-- Generator: Adobe Illustrator 19.1.0, SVG Export Plug-In . SVG Version: 6.00 Build 0)  -->
<!DOCTYPE svg PUBLIC "-//W3C//DTD SVG 1.1//EN" "http://www.w3.org/Graphics/SVG/1.1/DTD/svg11.dtd">
<svg version="1.1" id="Layer_1" xmlns="http://www.w3.org/2000/svg" xmlns:xlink="http://www.w3.org/1999/xlink" x="0px" y="0px"
	 viewBox="0 0 306 36" style="enable-background:new 0 0 306 36;" xml:space="preserve">
<style type="text/css">
	.st0{fill:#F26522;}
</style>
<g>
	<g>
		<path class="st0" d="M21.3,6.6c0,0.3-0.2,0.6-0.6,0.9c-0.3,0.2-1.2,0.4-2.7,0.5c-1.3,0.1-2,0.4-2.1,0.8c-0.1,0.5-0.8,3.5-2.1,8.9
			c-0.9,3.6-1.5,6.6-1.9,8.9c0,0.1,0,0.2,0.1,0.4v0.1c0,0.6-0.3,1-0.8,1.1c-0.1,0-0.7,0-1.7,0c-0.7,0-1-0.4-1-1.1
			c0-0.5,0.1-1,0.3-1.5c0.1-0.5,0.3-1,0.5-1.5c0.1-0.4,0.3-1,0.4-1.7c0.7-3,1.7-7.5,3.1-13.5c-0.2-0.3-0.9-0.5-2.2-0.7
			C9.4,8,8.6,7.8,8.4,7.6C8.3,7.3,8.2,7,8.2,6.5c0.4-0.4,0.9-0.9,1.4-0.9c0.5,0,1.8,0,3.8-0.1c1.6,0,2.8-0.1,3.8-0.1
			C19.9,5.4,21.3,5.8,21.3,6.6z"/>
	</g>
	<g>
		<path class="st0" d="M22.8,19.1c0,0.3-0.2,0.6-0.6,0.9c-0.4,0.3-0.8,0.5-1.1,0.5c-0.5,0-0.8-0.2-0.8-0.6c0-0.1,0-0.4-0.1-1.1
			l0.1,0.2c-0.6,0.5-0.9,1.1-1.1,1.8c-0.2,1-0.6,2.7-1,4.8c-0.1,0.6-0.1,1.1-0.2,1.7c-0.2,0.8-0.5,1.2-1.1,1.2c-1,0-1.6-0.1-1.9-0.4
			c-0.1-0.1-0.2-0.2-0.2-0.5c0-0.2,0.2-0.8,0.5-1.8c0.2-0.6,0.4-1.2,0.6-1.8c1.2-4.5,1.8-7.4,1.8-8.7c0-0.5,0.4-0.9,0.9-1
			c0.5,0,1.1,0.1,1.6,0.1c0.7,0.1,1,0.4,1,0.8c0,0.2-0.1,0.4-0.3,0.7c-0.1,0.2-0.3,0.4-0.5,0.6h0l0,0c0,0,0.1,0,0.1,0
			c0.6,0,1.1,0.4,1.6,1.2C22.6,18.4,22.8,18.9,22.8,19.1z"/>
		<path class="st0" d="M31.3,16.6c0,0.9-0.2,2.1-0.6,3.4c-0.1,0.4-0.7,3-1.6,7.6c-0.2,0.9-0.5,1.4-1,1.4c-0.1,0-0.2-0.1-0.3-0.1
			h-0.3c-0.1,0-0.6,0.1-0.8,0.1c-0.4,0-0.5-0.2-0.5-0.5c0-0.1,0.2-0.5,0.5-1.3c-1.4,0-2.4-0.1-2.9-0.2c-1.2-0.3-1.7-0.9-1.7-1.9
			c0-1.1,0.5-2.1,1.5-3.1c1-1,2-1.4,3.1-1.4c0.6,0,1,0.1,1.4,0.2c0.4-2.2,0.6-3.6,0.6-4.1c0-0.7-0.1-1-0.5-1c-0.6,0-1,0.4-1.2,1.2
			l-0.6,2.3c-0.3,0.8-0.8,1.2-1.6,1.2c-0.7,0-1-0.5-1-1.4s0.4-2.1,1-3.4c0.8-1.5,1.6-2.2,2.4-2.2l0.9,0.2c0,0,0.4,0,1.2,0.1
			c0.9,0.6,1.4,0.9,1.5,1C31.1,15,31.3,15.7,31.3,16.6z M27.6,23h-0.5c-0.8,0-1.5,0.2-2,0.7c-0.5,0.4-0.8,0.8-0.8,1.1
			c0,0.3,0.4,0.4,1.3,0.4h0.5c0.1,0,0.5-0.1,1-0.2L27.6,23z"/>
		<path class="st0" d="M40.8,15.1c0,0.2-0.2,0.5-0.6,1.2c-0.2,0.2-0.8,1.8-1.9,4.6c-0.8,2.1-1.4,3.9-1.8,5.5c-0.1,0.6-0.4,1-0.7,1.1
			c-0.2,0.1-0.5,0.1-1,0.1c-0.1,0-0.2-0.1-0.3-0.2l-0.5,0.1c-0.6-0.1-1.4-0.2-1.4-0.9c0-0.1,0.1-0.5,0.2-1.3C33,24.3,33,21,33,15.8
			c0-0.6,0.6-1,1.9-1c0.8,0,1.1,0.3,1.1,0.9c0,0.3-0.2,1.1-0.3,1.3c-0.1,1.4-0.3,3.4-0.5,6.2l1.7-4.3c0.4-1.2,0.8-2.3,1.1-3.2
			c0.1-0.3,0.2-0.8,0.4-1.3c0.2-0.4,0.5-0.6,0.7-0.6s0.4,0,0.4,0l0.2,0.1h0.4C40.7,14.2,40.8,14.3,40.8,15.1z"/>
		<path class="st0" d="M47.9,17.6c0,0.7-0.2,2.2-0.7,4.6c-0.3,1.4-0.8,2.2-1.4,2.2c-2,0-3.3,0-3.9,0.1c-0.1,0.3-0.1,0.7-0.1,1
			c0,1,0.4,1.5,1.1,1.5c0.4,0,1-0.3,1.7-0.8c0.8-0.5,1.3-0.8,1.6-0.8c0.6,0,0.9,0.3,0.9,0.8c-0.2,0.6-0.7,1.1-1.6,1.7
			c-0.8,0.6-1.6,0.9-2.2,0.9c-1.4,0-2.4-0.1-2.9-0.4c-0.8-0.4-1.2-1.2-1.2-2.4c0-1.7,0.4-3.8,1.3-6.1c0.3-0.8,0.9-2,1.9-3.8
			c0.5-0.9,1.2-1.3,2-1.3c0.2,0,0.5,0.1,0.6,0.1c1.2,0.1,1.9,0.4,2.2,0.6C47.8,15.7,47.9,16.4,47.9,17.6z M45.7,17.4
			c0-0.3-0.1-0.5-0.2-0.5c-0.5,0-1.1,0.8-1.9,2.4c-0.6,1.2-1,2.2-1.2,3.1c0.6,0,1.4-0.1,2.5-0.2C45.5,20.8,45.7,19.2,45.7,17.4z"/>
		<path class="st0" d="M55.9,10c0,0.5-0.5,1.3-0.6,1.6c-0.6,2.3-1.4,5.8-2.5,10.4c-0.3,1-0.6,2.4-0.9,4v0.3c0,0.1,0,0.2,0,0.3
			c0,0.8-0.5,1.4-1.4,1.4c-0.1,0-0.5-0.1-0.7-0.1c-0.4,0-0.6,0-0.6,0c-0.2,0-0.4-0.2-0.5-0.4v-0.1c0-0.4,0.1-0.8,0.1-1.2l3-12.8
			c0.1-0.7,0.3-1.7,0.6-3c0.1-0.6,0.2-1,0.2-1c0.1-0.4,0.4-0.6,0.7-0.6c0.4,0,1.3,0.4,1.8,0.4C55.7,9.3,55.9,9.6,55.9,10z"/>
		<path class="st0" d="M61,15.4c0,0.2-0.1,0.5-0.3,1c-0.3,0.8-0.8,2.4-1.4,4.7l-1.2,4.4c-0.1,0.6-0.2,1.2-0.4,1.8
			C57.6,27.8,57,28,56,28c-0.8,0-1.2-0.2-1.2-0.7c0-0.2,0.1-0.4,0.1-0.6c0.2-0.3,0.2-0.5,0.3-0.5l0.8-2.6c0.8-2.5,1.4-5.2,1.6-7.8
			c0.1-0.9,0.5-1.4,1.6-1.4c0.1,0.1,0.4,0.1,1.1,0.2C60.8,14.7,61,15,61,15.4z M62.1,10.6c0,0.5-0.2,1.2-0.7,1.9
			c-0.5,0.8-1,1.2-1.5,1.2c-0.8,0-1.4-0.7-1.4-1.6c0-0.1,0.1-0.4,0.2-1l0.8-1.3c0.4-0.5,0.8-0.7,1.3-0.7
			C61.5,9.1,62.1,9.8,62.1,10.6z"/>
		<path class="st0" d="M71.3,17.6c0,0.7-0.3,2.4-0.9,5.1c-0.2,0.8-0.5,2-0.8,3.5c0,0.4-0.1,0.8-0.1,1.2c-0.1,0.4-0.3,0.7-0.7,0.8
			c-0.6,0.1-0.9,0.2-0.9,0.2c-0.7,0-1.1-0.3-1.1-0.8c0-0.3,0.1-0.7,0.3-1.2c0.3-0.6,0.4-1,0.4-1.1c0.1-0.6,0.4-2.1,0.9-4.4
			c0.3-1.8,0.5-2.8,0.5-3c0-0.4-0.2-0.6-0.7-0.6c-0.8,0-1.4,0.5-2,1.4c-0.5,0.7-0.8,1.5-0.9,2.4c-0.2,1-0.4,1.9-0.7,2.9
			c-0.3,1.1-0.4,2.1-0.4,2.9c0,0.5-0.7,0.8-1.2,0.8c-1.2,0-1.7-0.2-1.7-0.7c0,0,0.1-0.2,0.2-0.5c0.3-0.9,0.8-2.5,1.3-4.9l1.4-6.6
			c0,0-0.1-0.2-0.1-0.6c0.5-0.4,1-0.6,1.3-0.6c0.7,0,1.1,0.1,1.3,0.4c0.2,0.2,0.3,0.7,0.5,1.4c0.5-0.1,1.1-0.2,2.1-0.2
			C70.6,15.2,71.3,16,71.3,17.6z"/>
		<path class="st0" d="M84.2,14.3c0,0.4-0.9,1.1-2.7,2.2c0.1,0.5,0.1,1.1,0.1,2c0,0.4,0,0.8-0.1,1.2c-0.4,1.8-1,3.2-2.1,4.2
			c-0.6,0.6-1.5,1.2-2.7,1.7c-1,0.4-1.5,0.8-1.7,1.1c0.1,0,0.4-0.1,0.7-0.1c0.7,0,1.5,0.2,2.5,0.5c0.9,0.3,1.7,0.6,2.3,1
			c0.9,0.6,1.4,1.3,1.4,2.2c0,1.3-0.7,2.3-2.1,3c-1.1,0.5-2.4,0.8-3.9,0.8c-1.8,0-3.3-0.2-4.6-0.7c-0.9-0.3-1.3-0.9-1.3-1.7
			c0-1.3,0.9-2.5,2.8-3.7c-0.2-0.2-0.4-0.4-0.4-0.8c0-1,0.5-1.9,1.6-2.6c-0.4-0.4-0.6-1-0.6-1.9c0-1.2,0.5-2.8,1.3-4.9
			c1-2.4,2-3.6,3-3.6c0.4,0,1.2,0.2,1.6,0.2c0.7,0,1.5-0.2,2.2-0.4c0.6-0.4,1.1-0.6,1.6-0.6C83.8,13.1,84.2,13.5,84.2,14.3z
			 M79.1,30.7c0-0.3-0.5-0.7-1.6-1.1c-1.1-0.5-1.8-0.7-2.2-0.7c-0.4,0-0.9,0.3-1.7,0.8c-0.7,0.5-1.1,1-1.1,1.3c0,0.6,0.8,1,2.5,1
			c0.6,0,1.4-0.1,2.3-0.4C78.5,31.3,79.1,31,79.1,30.7z M79.3,17.6c0-0.8-0.2-1.1-0.5-1.1c-0.3,0-0.8,0.5-1.5,1.4
			c-1,1.4-1.5,2.9-1.5,4.4c0,0.8,0.3,1.2,0.9,1.2c0.8,0,1.4-0.8,2-2.4C79.1,19.7,79.3,18.6,79.3,17.6z"/>
		<path class="st0" d="M102,7.8c0,1.1-0.2,2.8-0.6,5c-0.5,2.5-1,4-1.5,4.4c-0.1,0.1-0.4,0.2-0.7,0.2c-0.8,0-1.2-0.4-1.2-1.2
			c0-0.2,0-0.5,0.1-0.7c0.3-1.2,0.5-2.4,0.8-3.6c0.4-1.7,0.6-2.9,0.6-3.5c0-0.5-0.2-0.8-0.5-0.8c-0.3,0-0.9,0.5-1.6,1.4
			c-1.2,1.4-2.2,3.7-3.2,6.6c-1,3-1.5,5.4-1.5,7.3c0,2.1,0.6,3.1,1.9,3.1c0.8,0,1.6-0.2,2.2-0.6l1.9-1.4c0.1-0.1,0.3-0.1,0.6-0.3
			c0.4,0,0.5,0.3,0.5,0.9c0,0.9-0.7,1.8-2,2.7c-1.2,0.8-2.3,1.2-3.3,1.2c-1.5,0-2.6-0.6-3.5-1.7c-0.8-1-1.1-2.3-1.1-3.8
			c0-2,0.4-4.4,1.3-7.2c0.8-2.5,1.8-4.8,2.9-6.8c1.7-3,3.1-4.5,4.3-4.5c0.1,0,0.6,0.1,1.5,0.3C101.4,5.3,102,5.9,102,7.8z"/>
		<path class="st0" d="M110.4,18.7c-0.1,0.5-0.2,1.1-0.4,2c-0.3,1-0.6,2.4-1.1,4.3c-0.1,0.4-0.2,0.9-0.3,1.6l-0.2,1.2
			c-0.1,0.5-0.4,0.7-0.8,0.7c-0.1,0-0.1-0.1-0.2-0.1s-0.2,0-0.3-0.1c0,0-0.1,0-0.1,0h-0.1c-0.4,0-0.7-0.1-0.8-0.4
			c-0.1-0.1-0.1-0.5-0.1-1c0-0.2,0.1-0.5,0.2-0.8c0.1-0.5,0.2-0.8,0.2-0.8c0.1-0.5,0.4-1.8,0.8-3.7c0.2-0.6,0.3-1.2,0.5-1.8
			c0.1-0.7,0.2-1.3,0.2-1.8c0-0.5-0.3-0.7-0.9-0.7c-0.9,0-1.5,0.4-1.9,1.1c-0.1,0.3-0.4,1.1-0.6,2.3c-0.1,0.5-0.2,1.1-0.4,2
			l-0.8,3.8c-0.1,0.7-0.3,1.1-0.4,1.2c-0.1,0.2-0.5,0.2-1.2,0.2c-0.9,0-1.3-0.3-1.3-0.8c0,0,0.6-2.3,1.8-6.9
			c0.6-2.4,1.3-5.2,2.1-8.5c0.1-0.6,0.4-1.6,0.6-2.8c0.1-0.8,0.5-1.2,1.2-1.2c0.8,0,1.3,0.1,1.6,0.2c0.5,0.2,0.7,0.6,0.7,1.2
			c0,0.1-0.1,0.3-0.2,0.5c-0.1,0.1-0.2,0.3-0.4,0.5c-0.3,0.3-0.9,2-1.7,5c0.2-0.1,0.5-0.2,1-0.2c0.4,0,0.8,0.1,1.1,0.2l1.1,0.6
			C110,16.6,110.5,17.9,110.4,18.7z"/>
		<path class="st0" d="M117.5,15.4c0,0.2-0.1,0.5-0.3,1c-0.3,0.8-0.8,2.4-1.4,4.7l-1.2,4.4c-0.1,0.6-0.2,1.2-0.4,1.8
			c-0.1,0.4-0.8,0.6-1.7,0.6c-0.8,0-1.2-0.2-1.2-0.7c0-0.2,0.1-0.4,0.2-0.6c0.1-0.3,0.2-0.5,0.3-0.5l0.8-2.6
			c0.8-2.5,1.4-5.2,1.6-7.8c0.1-0.9,0.5-1.4,1.6-1.4c0.1,0.1,0.5,0.1,1.1,0.2C117.2,14.7,117.5,15,117.5,15.4z M118.5,10.6
			c0,0.5-0.2,1.2-0.7,1.9c-0.5,0.8-1,1.2-1.5,1.2c-0.8,0-1.4-0.7-1.4-1.6c0-0.1,0.1-0.4,0.2-1l0.8-1.3c0.4-0.5,0.8-0.7,1.3-0.7
			C118,9.1,118.5,9.8,118.5,10.6z"/>
		<path class="st0" d="M125,10c0,0.5-0.5,1.3-0.6,1.6c-0.6,2.3-1.4,5.8-2.5,10.4c-0.3,1-0.6,2.4-0.9,4v0.3c0,0.1,0,0.2,0,0.3
			c0,0.8-0.5,1.4-1.4,1.4c-0.1,0-0.5-0.1-0.7-0.1c-0.4,0-0.6,0-0.6,0c-0.2,0-0.4-0.2-0.5-0.4v-0.1c0-0.4,0.1-0.8,0.1-1.2l3-12.8
			c0.1-0.7,0.3-1.7,0.6-3c0.1-0.6,0.2-1,0.2-1c0.1-0.4,0.4-0.6,0.7-0.6c0.4,0,1.3,0.4,1.8,0.4C124.9,9.3,125,9.6,125,10z"/>
		<path class="st0" d="M135.6,9.1c0,0.6-0.1,1.3-0.3,2.1c-0.2,0.7-0.4,1.3-0.6,2c-0.4,1.4-1,3.6-1.8,6.5c-0.1,0.5-0.7,3.3-1.8,8.5
			c-0.2,0.9-0.3,1.4-0.4,1.4c-0.2,0.2-0.7,0.3-1.5,0.3c-0.4,0-0.7-0.2-0.8-0.5v-0.3c0-0.3,0.2-1,0.2-1.3c-0.8,0.1-1.4,0.2-1.8,0.2
			c-0.3,0-0.6,0-0.9-0.1c-0.8-0.2-1.3-0.5-1.6-0.7c-0.2-0.2-0.3-0.8-0.3-1.6c0-1.1,0.2-2.4,0.7-4c0.4-1.4,0.9-2.7,1.4-3.7
			c0.8-1.5,1.4-2.4,1.9-2.8c0.7-0.6,1.2-0.9,1.4-0.9c0,0,0.8,0.2,2.1,0.5l1.1-5.4c0.3-1.4,0.7-2.1,1.4-2.1c0.3,0,0.9,0.5,1.2,0.6
			C135.5,8.1,135.6,8.5,135.6,9.1z M130.6,17.9c0-0.5-0.2-0.8-0.5-0.8c-0.8,0-1.6,1.1-2.5,3.5c-0.8,2.1-1.2,3.6-1.2,4.6
			c0,0.6,0.2,0.9,0.8,0.9c0.6,0,1.2-0.2,1.9-0.7l0.7-3C130.3,20,130.6,18.5,130.6,17.9z"/>
		<path class="st0" d="M141.1,19.1c0,0.3-0.2,0.6-0.6,0.9c-0.4,0.3-0.8,0.5-1.1,0.5c-0.5,0-0.8-0.2-0.8-0.6c0-0.1,0-0.4-0.1-1.1
			l0.1,0.2c-0.6,0.5-0.9,1.1-1.1,1.8c-0.2,1-0.6,2.7-1,4.8c-0.1,0.6-0.1,1.1-0.2,1.7c-0.2,0.8-0.5,1.2-1.1,1.2c-1,0-1.6-0.1-1.9-0.4
			c-0.1-0.1-0.2-0.2-0.2-0.5c0-0.2,0.2-0.8,0.5-1.8c0.2-0.6,0.4-1.2,0.6-1.8c1.2-4.5,1.8-7.4,1.8-8.7c0-0.5,0.4-0.9,0.9-1
			c0.5,0,1.1,0.1,1.6,0.1c0.7,0.1,1,0.4,1,0.8c0,0.2-0.1,0.4-0.3,0.7c-0.1,0.2-0.3,0.4-0.5,0.6h0l0,0c0,0,0.1,0,0.1,0
			c0.6,0,1.1,0.4,1.6,1.2C140.9,18.4,141.1,18.9,141.1,19.1z"/>
		<path class="st0" d="M148.7,17.6c0,0.7-0.2,2.2-0.7,4.6c-0.3,1.4-0.8,2.2-1.4,2.2c-2,0-3.3,0-3.9,0.1c-0.1,0.3-0.1,0.7-0.1,1
			c0,1,0.4,1.5,1.1,1.5c0.4,0,1-0.3,1.7-0.8c0.8-0.5,1.3-0.8,1.6-0.8c0.6,0,0.9,0.3,0.9,0.8c-0.2,0.6-0.7,1.1-1.6,1.7
			c-0.8,0.6-1.6,0.9-2.2,0.9c-1.4,0-2.4-0.1-2.9-0.4c-0.8-0.4-1.2-1.2-1.2-2.4c0-1.7,0.4-3.8,1.3-6.1c0.3-0.8,0.9-2,1.9-3.8
			c0.5-0.9,1.2-1.3,2-1.3c0.2,0,0.5,0.1,0.6,0.1c1.2,0.1,1.9,0.4,2.2,0.6C148.5,15.7,148.7,16.4,148.7,17.6z M146.5,17.4
			c0-0.3-0.1-0.5-0.2-0.5c-0.5,0-1.1,0.8-1.9,2.4c-0.6,1.2-1,2.2-1.2,3.1c0.6,0,1.4-0.1,2.5-0.2C146.2,20.8,146.5,19.2,146.5,17.4z"
			/>
		<path class="st0" d="M159.4,17.6c0,0.7-0.3,2.4-0.9,5.1c-0.2,0.8-0.5,2-0.8,3.5c0,0.4-0.1,0.8-0.1,1.2c-0.1,0.4-0.3,0.7-0.7,0.8
			c-0.6,0.1-0.9,0.2-0.9,0.2c-0.8,0-1.1-0.3-1.1-0.8c0-0.3,0.1-0.7,0.3-1.2c0.3-0.6,0.4-1,0.4-1.1c0.2-0.6,0.5-2.1,0.9-4.4
			c0.3-1.8,0.5-2.8,0.5-3c0-0.4-0.2-0.6-0.7-0.6c-0.8,0-1.4,0.5-2,1.4c-0.4,0.7-0.7,1.5-0.9,2.4c-0.2,1-0.4,1.9-0.7,2.9
			c-0.3,1.1-0.4,2.1-0.4,2.9c0,0.5-0.7,0.8-1.2,0.8c-1.2,0-1.7-0.2-1.7-0.7c0,0,0.1-0.2,0.2-0.5c0.3-0.9,0.8-2.5,1.3-4.9l1.4-6.6
			c0,0-0.1-0.2-0.1-0.6c0.5-0.4,1-0.6,1.3-0.6c0.7,0,1.1,0.1,1.3,0.4c0.2,0.2,0.3,0.7,0.5,1.4c0.5-0.1,1.1-0.2,2.1-0.2
			C158.7,15.2,159.4,16,159.4,17.6z"/>
		<path class="st0" d="M179.3,9.9c0,2.2-0.8,4.5-2.5,6.9c-1.8,2.6-3.8,3.8-5.9,3.8c-0.4,1.8-0.8,3.7-1.1,5.9
			c-0.2,1.2-0.5,1.4-1.1,1.6c0.1,0-0.3-0.1-1.4-0.3c-0.5-0.3-0.7-0.7-0.7-1c0-0.3,0.2-1.4,0.8-3.5l1.3-5.9c0.1-0.5,0.3-1.1,0.5-2
			l1.9-8.8c0-0.2,0-0.5,0.1-0.8c0.1-0.4,0.9-0.6,2.5-0.6c1.6,0,2.9,0.4,4,1.2C178.8,7.1,179.3,8.4,179.3,9.9z M176.8,10.7
			c0-1.1-0.2-1.8-0.4-2.1c-0.3-0.3-0.9-0.4-2-0.4c-0.3,0-0.5,0.1-0.7,0.3c-0.2,0.3-0.6,2-1.3,5.3c-0.1,0.4-0.2,1-0.5,2
			c-0.1,0.5-0.3,1.4-0.5,2.4l-0.1-0.2c0.8,0,1.7-0.6,2.9-1.9c0.6-0.7,1.2-1.6,1.7-2.6C176.5,12.5,176.8,11.5,176.8,10.7z"/>
		<path class="st0" d="M185.4,19.1c0,0.3-0.2,0.6-0.6,0.9c-0.4,0.3-0.8,0.5-1.1,0.5c-0.4,0-0.8-0.2-0.8-0.6c0-0.1,0-0.4-0.1-1.1
			l0.1,0.2c-0.6,0.5-0.9,1.1-1,1.8c-0.2,1-0.6,2.7-1,4.8c-0.1,0.6-0.1,1.1-0.2,1.7c-0.2,0.8-0.5,1.2-1.1,1.2c-1.1,0-1.7-0.1-1.9-0.4
			c-0.1-0.1-0.2-0.2-0.2-0.5c0-0.2,0.1-0.8,0.5-1.8c0.2-0.6,0.4-1.2,0.6-1.8c1.2-4.5,1.8-7.4,1.8-8.7c0-0.5,0.4-0.9,0.9-1
			c0.5,0,1,0.1,1.6,0.1c0.7,0.1,1,0.4,1,0.8c0,0.2-0.1,0.4-0.3,0.7c-0.1,0.2-0.3,0.4-0.5,0.6h0l0,0c0,0,0.1,0,0.1,0
			c0.6,0,1.1,0.4,1.6,1.2C185.2,18.4,185.4,18.9,185.4,19.1z"/>
		<path class="st0" d="M193.7,17.8c0,1.1-0.2,2.5-0.8,4.4c-0.5,1.9-1,3.3-1.5,4.3c-0.8,1.4-1.8,2.1-3.1,2.1
			c-0.2-0.1-0.7-0.3-1.5-0.4c-0.7-0.1-1.2-0.3-1.6-0.5c-0.5-0.4-0.7-1.1-0.7-2c0-1.5,0.4-3.3,1.1-5.4c0.7-2.1,1.5-3.8,2.4-5.1
			c0.7-1,1.3-1.4,1.8-1.3c0.3,0.1,1.1,0.3,2.2,0.5C193.2,14.6,193.7,15.7,193.7,17.8z M191.2,17.9c0-0.8-0.2-1.2-0.7-1.2
			c-0.8,0-1.5,1.3-2.2,3.9c-0.6,2.2-0.9,3.9-0.9,5.1c0,0.6,0.2,0.8,0.6,0.8c0.8,0,1.6-1.3,2.3-3.8C190.9,20.7,191.2,19.1,191.2,17.9
			z"/>
		<path class="st0" d="M200,15c0,0.3-0.1,0.9-0.4,1.6c-0.3,0.9-0.5,1.5-0.6,1.7c-0.5,1.7-1,4.4-1.9,7.9c-0.3,1.3-0.7,3.3-1.1,6
			c-0.1,0.8-0.4,1.1-1,1.1c-0.2,0-0.4-0.1-0.6-0.2c-0.2,0-0.5,0.1-0.8,0.1c-0.3,0-0.5-0.2-0.5-0.7c0-0.3,0.1-1,0.4-2.1
			c0.2-0.7,0.3-1.4,0.5-2.2l2.4-10.8c0.1-0.5,0.2-1.4,0.4-2.4c0.2-0.6,0.5-0.9,1.1-0.9h0.7C199.6,14,200,14.3,200,15z M201.2,10.2
			c0,1.2-0.7,2.1-2,2.8c-0.8,0-1.4-0.8-1.4-1.6c0-0.6,0.2-1.2,0.7-1.9c0.5-0.7,1-1,1.6-1C200.9,8.8,201.2,9.4,201.2,10.2z"/>
		<path class="st0" d="M208.4,17.6c0,0.7-0.2,2.2-0.7,4.6c-0.3,1.4-0.8,2.2-1.4,2.2c-2,0-3.3,0-3.9,0.1c-0.1,0.3-0.1,0.7-0.1,1
			c0,1,0.4,1.5,1.1,1.5c0.4,0,1-0.3,1.7-0.8c0.8-0.5,1.3-0.8,1.6-0.8c0.6,0,0.9,0.3,0.9,0.8c-0.2,0.6-0.7,1.1-1.6,1.7
			s-1.6,0.9-2.2,0.9c-1.4,0-2.4-0.1-2.9-0.4c-0.8-0.4-1.2-1.2-1.2-2.4c0-1.7,0.4-3.8,1.3-6.1c0.3-0.8,0.9-2,1.9-3.8
			c0.5-0.9,1.2-1.3,2-1.3c0.2,0,0.5,0.1,0.6,0.1c1.2,0.1,1.9,0.4,2.2,0.6C208.2,15.7,208.4,16.4,208.4,17.6z M206.1,17.4
			c0-0.3-0.1-0.5-0.2-0.5c-0.5,0-1.1,0.8-1.9,2.4c-0.6,1.2-1,2.2-1.2,3.1c0.6,0,1.4-0.1,2.5-0.2C205.9,20.8,206.1,19.2,206.1,17.4z"
			/>
		<path class="st0" d="M217.4,16.7c0,0.4-0.1,1.2-0.3,2.2c-0.2,1.1-0.4,1.8-0.5,1.9c-0.2,0.2-0.5,0.3-1,0.3c-0.6,0-1-0.2-1.1-0.4
			c-0.1-0.2-0.1-0.6-0.1-1.2c0-0.2,0.1-0.7,0.3-1.4c0.2-0.8,0.3-1.3,0.3-1.6c0-0.3-0.1-0.4-0.2-0.4s-0.4,0.2-0.8,0.7
			c-0.5,0.7-1,1.9-1.6,3.6c-0.6,1.7-0.8,3-0.8,3.9c0,1,0.3,1.6,0.9,1.6c0.5,0,1.1-0.3,1.8-0.9c0.7-0.6,1.2-1,1.4-1
			c0.4,0,0.9,0.4,0.9,0.9c0,0.4-0.2,0.8-0.6,1.1c-0.9,0.8-1.4,1.3-1.7,1.4c-0.5,0.3-1.2,0.5-2.1,0.5c-2.1,0-3.1-1.1-3.1-3.5
			c0-1.2,0.4-3,1.1-5.3c0.8-2.5,1.6-4.1,2.3-4.7c0.4-0.3,0.9-0.5,1.7-0.5C216.2,13.7,217.4,14.7,217.4,16.7z"/>
		<path class="st0" d="M225.4,14.7c0,1-0.2,1.6-0.7,1.7c-0.7,0-1.3,0.1-1.9,0.1l-1.7,7.3c-0.3,1.3-0.4,2.3-0.4,3.1
			c0,0.6-0.6,0.9-1.2,0.9h-0.9c-0.6,0-0.8-0.2-0.8-0.8c0-0.2,0-0.4,0.1-0.7c0.1-0.4,0.2-0.6,0.2-0.6c0.5-2,1.1-5,2.1-8.9l-0.7,0.1
			c-0.4,0.1-0.6-0.3-0.6-1.1c0-0.6,0.2-1,0.5-1.1c0.1,0,0.5-0.1,1.4-0.2c0.2-0.8,0.4-2,0.5-3.7c0-0.5,0.4-0.8,0.8-0.8l0.3,0.3
			l0.4,0.1c0.1,0,0.2-0.1,0.5-0.1c0.8,0,1.1,0.4,1.1,1c0,0.1-0.1,0.3-0.2,0.4c-0.2,0.2-0.2,0.4-0.2,0.5l-0.5,2
			c0.6,0,1.1-0.1,1.5-0.1C225.2,14.1,225.4,14.3,225.4,14.7z"/>
		<path class="st0" d="M243.1,9.9c0,2.2-0.8,4.5-2.5,6.9c-1.8,2.6-3.8,3.8-5.9,3.8c-0.4,1.8-0.8,3.7-1.1,5.9
			c-0.2,1.2-0.5,1.4-1.1,1.6c0.1,0-0.3-0.1-1.4-0.3c-0.5-0.3-0.7-0.7-0.7-1c0-0.3,0.2-1.4,0.8-3.5l1.3-5.9c0.1-0.5,0.3-1.1,0.5-2
			l1.9-8.8c0-0.2,0-0.5,0.1-0.8c0.1-0.4,0.9-0.6,2.5-0.6c1.6,0,2.9,0.4,4,1.2C242.5,7.1,243.1,8.4,243.1,9.9z M240.5,10.7
			c0-1.1-0.2-1.8-0.4-2.1c-0.3-0.3-0.9-0.4-2-0.4c-0.3,0-0.5,0.1-0.7,0.3c-0.2,0.3-0.6,2-1.3,5.3c-0.1,0.4-0.2,1-0.5,2
			c-0.1,0.5-0.3,1.4-0.5,2.4l-0.1-0.2c0.8,0,1.7-0.6,2.9-1.9c0.6-0.7,1.2-1.6,1.7-2.6C240.3,12.5,240.5,11.5,240.5,10.7z"/>
		<path class="st0" d="M250.7,16.6c0,0.9-0.2,2.1-0.6,3.4c-0.1,0.4-0.7,3-1.7,7.6c-0.2,0.9-0.5,1.4-1,1.4c-0.1,0-0.2-0.1-0.3-0.1
			h-0.3c-0.1,0-0.6,0.1-0.8,0.1c-0.4,0-0.5-0.2-0.5-0.5c0-0.1,0.2-0.5,0.5-1.3c-1.4,0-2.4-0.1-2.9-0.2c-1.2-0.3-1.7-0.9-1.7-1.9
			c0-1.1,0.5-2.1,1.5-3.1c1-1,2-1.4,3.1-1.4c0.6,0,1,0.1,1.4,0.2c0.4-2.2,0.6-3.6,0.6-4.1c0-0.7-0.2-1-0.5-1c-0.6,0-1,0.4-1.2,1.2
			l-0.6,2.3c-0.3,0.8-0.8,1.2-1.6,1.2c-0.7,0-1-0.5-1-1.4s0.4-2.1,1-3.4c0.8-1.5,1.6-2.2,2.4-2.2l0.9,0.2c0,0,0.4,0,1.2,0.1
			c0.9,0.6,1.4,0.9,1.5,1C250.6,15,250.7,15.7,250.7,16.6z M247,23h-0.5c-0.8,0-1.5,0.2-2,0.7c-0.5,0.4-0.8,0.8-0.8,1.1
			c0,0.3,0.4,0.4,1.3,0.4h0.4c0.2,0,0.5-0.1,1-0.2L247,23z"/>
		<path class="st0" d="M259.6,16.3c0,0.8-0.1,1.5-0.4,2.3c-0.1,0.5-0.3,1-0.5,1.5c-0.3,0.6-0.7,0.9-1.2,0.9c-0.6,0-1.2-0.6-1.2-1.2
			c0-0.3,0.1-0.8,0.3-1.5c0.2-0.7,0.3-1.3,0.2-1.8c0,0-0.1,0-0.1,0c-0.1,0-0.3,0.2-0.7,0.6c-0.9,1-1.4,2.3-1.4,3.9
			c0,0.5,0.1,0.8,0.3,1c0.6,0.4,1.2,0.8,1.8,1.2c0.8,0.6,1.1,1.1,1.1,1.8c0,0.2,0,0.5-0.1,0.7c-0.5,1.6-1.9,2.4-4.2,2.4
			c-0.3,0-0.7,0-1.2-0.1c-0.9-0.1-1.3-0.1-1.4-0.2c-0.5-0.2-0.8-0.5-0.8-1c0-0.7,0.2-1.3,0.8-1.6c0.2-0.1,0.4-0.1,0.6-0.2
			c0.2,0,0.5,0.2,1,0.5c0.4,0.3,0.8,0.5,1.2,0.5c0.9,0,1.4-0.2,1.4-0.6c0-0.2-0.3-0.4-0.8-0.6c-0.7-0.3-1.3-0.7-1.6-1
			c-0.6-0.6-0.8-1.3-0.8-2.2c0-1.4,0.3-2.9,1-4.5c0.8-2,1.8-3,3-3c0.4,0,1.2,0.3,1.8,0.3C259,14.2,259.6,14.9,259.6,16.3z"/>
		<path class="st0" d="M268.1,16.3c0,0.8-0.1,1.5-0.4,2.3c-0.1,0.5-0.3,1-0.5,1.5c-0.3,0.6-0.7,0.9-1.2,0.9c-0.6,0-1.2-0.6-1.2-1.2
			c0-0.3,0.1-0.8,0.3-1.5c0.2-0.7,0.3-1.3,0.2-1.8c0,0-0.1,0-0.1,0c-0.1,0-0.3,0.2-0.7,0.6c-0.9,1-1.4,2.3-1.4,3.9
			c0,0.5,0.1,0.8,0.3,1c0.6,0.4,1.2,0.8,1.8,1.2c0.8,0.6,1.1,1.1,1.1,1.8c0,0.2,0,0.5-0.1,0.7c-0.5,1.6-1.9,2.4-4.2,2.4
			c-0.3,0-0.7,0-1.2-0.1c-0.9-0.1-1.3-0.1-1.4-0.2c-0.5-0.2-0.8-0.5-0.8-1c0-0.7,0.2-1.3,0.8-1.6c0.2-0.1,0.4-0.1,0.6-0.2
			c0.2,0,0.5,0.2,1,0.5c0.4,0.3,0.8,0.5,1.2,0.5c0.9,0,1.4-0.2,1.4-0.6c0-0.2-0.3-0.4-0.8-0.6c-0.7-0.3-1.3-0.7-1.6-1
			c-0.6-0.6-0.8-1.3-0.8-2.2c0-1.4,0.3-2.9,1-4.5c0.8-2,1.8-3,3-3c0.4,0,1.2,0.3,1.8,0.3C267.5,14.2,268.1,14.9,268.1,16.3z"/>
		<path class="st0" d="M276.8,19.3c0,1.7-0.4,3.4-1.3,5.2c-1.1,2.1-2.3,3.2-3.8,3.2c0,0-0.4-0.1-1.2-0.4c-0.3,1.5-0.7,3.5-1,6.3
			c-0.1,0.7-0.5,1-1.1,1.1l-0.4-0.3c-0.2,0-0.4,0.1-0.6,0.1c-0.4,0-0.7-0.2-0.9-0.5c0-0.2-0.1-0.4-0.1-0.4c0-0.2,0-0.4,0.1-0.6
			c0.3-1.5,0.7-3.1,1-4.7l1.8-8c0.5-2.1,0.9-4.1,1.3-5.9c0.1-0.5,0.2-1,0.3-1.4c0.1-0.4,0.5-0.7,1.1-0.8c0.5-0.1,0.8-0.2,1.1-0.2
			c0.8,0,0.9,0.4,0.9,1.2c0,0.1-0.2,0.8-0.7,2c0.3-0.1,0.5-0.2,0.8-0.2c0.2,0,1.1,0.4,1.9,0.7C276.6,16,276.8,17.1,276.8,19.3z
			 M274.4,18.2c0-0.8-0.2-1.1-0.8-1.1c-0.7,0-1.3,1.5-1.9,4.4c-0.5,2.6-0.8,3.8-0.8,3.7c0,0.2,0.2,0.4,0.5,0.4c0.8,0,1.6-1,2.2-3.1
			C274.2,20.6,274.4,19.3,274.4,18.2z"/>
		<path class="st0" d="M286.1,17.8c0,1.1-0.2,2.5-0.8,4.4c-0.5,1.9-1,3.3-1.5,4.3c-0.8,1.4-1.8,2.1-3.1,2.1
			c-0.2-0.1-0.7-0.3-1.5-0.4c-0.7-0.1-1.2-0.3-1.6-0.5c-0.5-0.4-0.7-1.1-0.7-2c0-1.5,0.4-3.3,1.1-5.4c0.7-2.1,1.5-3.8,2.4-5.1
			c0.7-1,1.3-1.4,1.8-1.3c0.3,0.1,1.1,0.3,2.2,0.5C285.5,14.6,286.1,15.7,286.1,17.8z M283.6,17.9c0-0.8-0.2-1.2-0.7-1.2
			c-0.8,0-1.5,1.3-2.2,3.9c-0.6,2.2-0.9,3.9-0.9,5.1c0,0.6,0.2,0.8,0.6,0.8c0.8,0,1.6-1.3,2.3-3.8C283.3,20.7,283.6,19.1,283.6,17.9
			z"/>
		<path class="st0" d="M293.8,19.1c0,0.3-0.2,0.6-0.6,0.9c-0.4,0.3-0.8,0.5-1.1,0.5c-0.4,0-0.8-0.2-0.8-0.6c0-0.1,0-0.4-0.1-1.1
			l0.1,0.2c-0.6,0.5-0.9,1.1-1,1.8c-0.2,1-0.6,2.7-1,4.8c-0.1,0.6-0.1,1.1-0.2,1.7c-0.2,0.8-0.5,1.2-1.1,1.2c-1.1,0-1.7-0.1-1.9-0.4
			c-0.1-0.1-0.2-0.2-0.2-0.5c0-0.2,0.1-0.8,0.5-1.8c0.2-0.6,0.4-1.2,0.6-1.8c1.2-4.5,1.8-7.4,1.8-8.7c0-0.5,0.4-0.9,0.9-1
			c0.5,0,1,0.1,1.6,0.1c0.7,0.1,1,0.4,1,0.8c0,0.2-0.1,0.4-0.3,0.7c-0.1,0.2-0.3,0.4-0.5,0.6h0l0,0c0,0,0.1,0,0.1,0
			c0.6,0,1.1,0.4,1.6,1.2C293.6,18.4,293.8,18.9,293.8,19.1z"/>
		<path class="st0" d="M301.3,14.7c0,1-0.2,1.6-0.7,1.7c-0.7,0-1.3,0.1-1.9,0.1l-1.7,7.3c-0.3,1.3-0.4,2.3-0.4,3.1
			c0,0.6-0.6,0.9-1.2,0.9h-0.9c-0.6,0-0.8-0.2-0.8-0.8c0-0.2,0-0.4,0.1-0.7c0.1-0.4,0.2-0.6,0.2-0.6c0.5-2,1.1-5,2.1-8.9l-0.7,0.1
			c-0.4,0.1-0.6-0.3-0.6-1.1c0-0.6,0.2-1,0.5-1.1c0.1,0,0.5-0.1,1.4-0.2c0.2-0.8,0.4-2,0.5-3.7c0-0.5,0.4-0.8,0.8-0.8l0.3,0.3
			l0.4,0.1c0.1,0,0.2-0.1,0.5-0.1c0.8,0,1.1,0.4,1.1,1c0,0.1-0.1,0.3-0.2,0.4c-0.2,0.2-0.2,0.4-0.2,0.5l-0.5,2
			c0.6,0,1.1-0.1,1.5-0.1C301.1,14.1,301.3,14.3,301.3,14.7z"/>
	</g>
</g>
</svg>
